<svg xmlns="http://www.w3.org/2000/svg" xmlns:xlink="http://www.w3.org/1999/xlink" id="Layer_1" x="0px" y="0px" viewBox="0 0 640.2 184.2" xml:space="preserve"><g>	<g>		<path fill="#010101" d="M113.6,48.2h21.7v9.6h0.3c4.6-6.9,11-11.4,20.4-11.4c1.3,0,2.8,0.1,4.1,0.3v17.5c-2.3-0.1-4.8-0.3-7.1-0.3   c-7.9,0-16.8,3.3-16.8,12.9v42.8h-22.7L113.6,48.2L113.6,48.2z"></path>		<path fill="#010101" d="M165.1,70.1v-1.7c0-16.4,14-22,31.1-22c27,0,32.1,9,32.1,21.9v37.5c0,6.6,0.5,9.7,2.8,13.8h-21.7   c-1.5-2.2-2.1-5-2.8-7.4h-0.3c-5.3,7.4-11.7,9.3-22.6,9.3c-15.8,0-21.4-10.9-21.4-20.4c0-13.4,6.8-18.8,22.4-22.3l12.8-2.8   c6.8-1.5,9-3.6,9-8.4c0-5.4-3-8.8-10.6-8.8c-6.9,0-10.5,3.7-10.5,9.3v2H165.1L165.1,70.1z M206.6,83.9c-3.1,1.9-6.9,3-9.7,3.6   C187.7,89.1,184,92.6,184,99c0,5.4,2.5,9.9,8.6,9.9s14-3.2,14-11V83.9L206.6,83.9z"></path>		<path fill="#010101" d="M260.7,86.7v5.7c0,8.4,2.8,16.6,11.2,16.6c7.6,0,10.7-4.6,12-13.4h20.4c-0.8,16.6-10.7,25.8-32.1,25.8   c-32.9,0-34.2-20.4-34.2-38.2c0-19.1,4.6-36.9,35.2-36.9c26.5,0,32.4,14.3,32.4,36.2v4.1L260.7,86.7L260.7,86.7z M283.9,75.8   c-0.5-10.9-2.1-17-11.5-17c-9,0-11.7,7.6-11.7,14.2v2.8L283.9,75.8L283.9,75.8L283.9,75.8z"></path>		<path fill="#010101" d="M314.4,48.2h21.7v7.3h0.3c5.8-6.5,12.8-9.2,22.4-9.2c10.4,0,18,4.1,20.4,11.4h0.3   c3.4-7.6,11.7-11.4,22.4-11.4c15,0,22,7.6,22,21.4v51.8h-22.7V69.7c0-6-2.5-9.3-8.9-9.3c-7.2,0-11.8,4-11.8,12.2v46.9h-22.7V69.7   c0-6-2.5-9.3-8.9-9.3c-7.2,0-11.8,4-11.8,12.2v46.9h-22.7L314.4,48.2L314.4,48.2z"></path>		<path fill="#010101" d="M432.7,70.1v-1.7c0-16.4,14-22,31.1-22c27,0,32.1,9,32.1,21.9v37.5c0,6.6,0.5,9.7,2.8,13.8H477   c-1.5-2.2-2.2-5-2.8-7.4h-0.3c-5.3,7.4-11.7,9.3-22.6,9.3c-15.8,0-21.4-10.9-21.4-20.4c0-13.4,6.8-18.8,22.4-22.3l12.8-2.8   c6.8-1.5,9-3.6,9-8.4c0-5.4-3-8.8-10.6-8.8c-6.9,0-10.5,3.7-10.5,9.3v2H432.7L432.7,70.1z M474.2,83.9c-3.1,1.9-6.9,3-9.7,3.6   c-9.2,1.6-12.8,5.2-12.8,11.6c0,5.4,2.5,9.9,8.6,9.9s14-3.2,14-11V83.9L474.2,83.9z"></path>		<path fill="#010101" d="M508.8,48.2h21.7v9.6h0.3c4.6-6.9,11-11.4,20.4-11.4c1.3,0,2.8,0.1,4.1,0.3v17.5c-2.3-0.1-4.8-0.3-7.1-0.3   c-7.9,0-16.8,3.3-16.8,12.9v42.8h-22.7L508.8,48.2L508.8,48.2z"></path>		<g>			<path fill="#EF3F35" d="M46.4,55.5c0,0,27.6-7.9,27.6-26.8C74,8.5,53.1,0.5,43.4,0.5C33.8,0.5,0,0.8,0,0.8v119.7h64.3    c9.7,0,41.5-6.1,41.5-31.7c0-25.6-26.3-29.9-26.3-29.9C62.7,55,46.4,55.5,46.4,55.5z M34.6,5.4c0,0,30.3-5.1,30.3,22.8    c0,11.2-3.2,15.6-15,21.2s-15.3,9.7-15.3,9.7V5.4z M52.8,114.9c-4,0-18,0.2-18,0.2V75.5c0-11,9.1-13,16.6-13    c7.5,0,22.8,4.4,22.8,26.1C74.2,110.3,56.8,114.9,52.8,114.9"></path>			<g>				<path fill="#0756A5" d="M89.1,27.1c0-20-25-26.8-25.3-26.9c-0.2-0.1-0.5,0.1-0.6,0.3s0,0.5,0.2,0.6C63.6,1.3,81,10.7,81,26.1     v2.1C81,43.6,63.6,53,63.4,53.1c-0.2,0.1-0.3,0.4-0.2,0.6c0.1,0.2,0.3,0.3,0.5,0.3c0,0,0.1,0,0.1,0C64,53.9,89.1,47.1,89.1,27.1     z"></path>				<path fill="#0756A5" d="M75,0c-0.2-0.1-0.5,0.1-0.6,0.3s0,0.5,0.3,0.6c0.2,0.1,20.6,9.7,20.6,25.1v2.1c0,15.4-20.4,25-20.6,25.1     c-0.2,0.1-0.4,0.4-0.3,0.6c0.1,0.2,0.3,0.3,0.5,0.3c0,0,0.1,0,0.1,0c0.3-0.1,29.6-7.7,29.3-27V27C104.6,7.7,75.3,0.1,75,0z"></path>			</g>		</g>	</g>	<g>		<g>			<path fill="#01ACCD" d="M617.4,156.5l-0.1-0.3V156v-0.3l-0.3-0.6l-0.2-0.4l-0.2-0.3l-0.2-0.3l-0.2-0.2l-0.2-0.1l-0.2-0.1l-0.3,0    l-0.3,0.2l-0.1,0.2l-0.1,0.2l0,0.2l0.1,0.4l0.2,0.2h0.2l0.3,0.3l0,0.3v0.3l0.1,0.3l0.4,0.2l0.4,0l0.3,0.5l0.1,0.2l0.2,0l0.1-0.3    v-0.2L617.4,156.5z M615.2,160.5l0-0.9l-0.2-0.8l-0.1-0.8l-0.3,0.3l-0.2,0.4l-0.2,0.4l-0.1,0.4l-0.4,0.8l-0.3,0.1l-0.2-0.2    l-0.2-0.2l-0.2-0.3l-0.2-0.4l-0.2-0.4l-0.2-0.3l-0.4,0l-0.4,0.3l-0.3,0.2l-0.3,0.2l-0.3,0.2l-0.2,0.2l-0.3,0.2l-0.3,0.2l-0.3,0.2    l-0.3,0.3l-0.2,0.3l-0.4,0.2l-0.4,0.2l-0.4,0.3l-0.4,0.3l-0.4,0.3l-0.4,0.3l-0.4,0.3l-0.4,0.2l-0.3,0.2l-0.3,0.2l-0.3,0.2    l-0.2,0.3v0.3l0,0.3l0,0.3l-0.1,0.5l-0.2,0.3l-0.3,0.2l-0.1,0.2l0,0.2l-0.1,0.3l-0.2,0.5v0.4l0.3,0.2l0.4,0.1l0.4,0l0.4,0l0.2,0    l0.3-0.1l0.3-0.1l0.2-0.2l0.3-0.2l0.2-0.1l0.3-0.2l0.3,0h0.3l0.3,0.3l0.3,0.4l0.2,0.3l0.2,0.4l0.2,0.4l0.2,0.4l0.2,0.4l0.3,0.3    l0.3,0.1l0.4,0l0.3-0.3l0.3-0.4l0.4-0.3l0.4-0.3l0.4-0.3l0.4-0.3l0.4-0.3l0.4-0.3l0.4-0.3l0.4-0.3l0.4-0.4l0.3-0.4l0-0.1l0.3-0.6    l0.2-0.6l0.1-0.7l0-0.7l0-0.7l0-0.7L615.2,160.5z M610.2,156.8l0.3-0.3l0.3-0.2l0.1-0.2l-0.3-0.2h-0.3H610l-0.3,0.1l0,0.2    l0.3,0.3L610.2,156.8z M609.8,169.4l-0.3,0l-0.2,0.2l0.2,0.3l0.3,0.2l0.2,0l0.1-0.3l-0.1-0.4L609.8,169.4z M602.9,179l-0.1-0.2    l-0.2-0.4l-0.3-0.4l-0.2-0.4l-0.2-0.3l-0.2-0.2h-0.2l-0.4,0.3l-0.2,0.2l-0.2,0.2l-0.3,0.2l-0.2,0.1l-0.4-0.3l-0.2-0.1l-0.2,0H599    l-0.2,0l-0.2,0.1l-0.2,0.2l-0.3,0l-0.4-0.4l-0.4-0.2l-0.4,0.1l-0.3,0.2l-0.3,0.1l-0.3,0.1h-0.3l-0.2,0h-0.2l-0.2-0.1l-0.2-0.3    l-0.2-0.2l-0.3-0.2H594l-0.4,0.1l-0.6,0.3l-0.5,0.1l-0.4,0l-0.5-0.1l-0.4-0.2l-0.4-0.3l-0.4-0.4l-0.4-0.5l-0.2-0.2l-0.2,0l-0.2,0    l-0.2,0.1l-0.3,0.3l-0.3,0.3l-0.3,0.2l-0.3,0.2l-0.4,0l-0.4-0.1l-0.4-0.1l-0.4,0.2l-0.3,0.2l-0.3,0.2l-0.3,0.1l-0.3,0.2l-0.2,0.2    l-0.2,0.3l-0.2,0.3L584,179l-0.2,0.2l-0.3,0.2l-0.2,0l-0.3-0.1l-0.2-0.1l-0.2-0.2l-0.2-0.2l-0.2-0.2l-0.2-0.3l-0.2-0.3l-0.2-0.3    l-0.2-0.3l-0.2-0.2l-0.2-0.1h-0.2l-0.2,0.1l-0.3,0.1l-0.2,0.2l-0.3,0.1l-0.2,0.2l-0.2,0.3h-0.4l-0.3,0.1l-0.2,0.4l0,0.6H578h-0.2    l-0.2,0l-0.2,0l-0.2,0l-0.2,0h-0.2l-0.2,0v-0.2l-0.2,0l-0.1,0.3l0,0.3l-0.3,0.2l-0.2-0.1l-0.4-0.2l-0.3,0.2l-0.2,0.2l-0.1,0.2    c-2-1-3.8-2.2-5.6-3.6c-4.9-4-8.4-9.5-10.1-15.6c1.6,0.5,3.3,1.1,5,1.7c2.1,0.8,4.3,1.6,6.9,2.4l0,0l0,0.3l-0.1,0.6l0,0.9    l0.3,0.5l0.4,0.5l0.3,0.5l0.4,0.5l0.4,0.5l0.3,0.5l0.3,0.6l0.3,0.5l0.3,0.5l0.2,0.6l0.2,0.6l0.2,0.6v0l0.3,0.4l0.2,0.1l0.2,0.1    l0.3,0l0.3,0l0.3,0.1l0.2,0.1l0-0.4l-0.1-0.4v0l-0.1-0.4l-0.1-0.4l-0.2-0.2l-0.2-0.3l-0.2-1.1l0-1l0.2-1l0.5-0.9l0.2-0.3l0.3-0.2    l0.2-0.2l0.2-0.2l0.2-0.2l0.2-0.2c4,0.9,8.6,1.6,14.5,2c0,0.6,0.3,2.5,0.3,2.5l11-5.9l-9.2-2.7v0l0-0.3l0.1-0.3l0.3-0.4l0.3-0.4    l0.3-0.4l0.2-0.4l0.2-0.7l0-0.7v-0.7l-0.1-0.6c0.9,0,1.8,0.1,2.7,0.1c0.1,0.6,0.3,2.7,0.3,2.7l10.2-5.5l0,0l0.2,0.2l0.3,0.3    l0.2-0.4l0-0.2l0-0.2l0-0.1l0.1,0l-0.1,0l-0.1-0.3l-0.1-0.5l-0.2-0.4l-0.2-0.2l-0.1-0.3l-0.3-0.2l-0.2,0.2l-0.1,0.3l0.3,0.8    l0.2,0.4l-10.8-3.2l0-0.1l0.2-0.4l0-0.3l0.1-0.2l0.3-0.3l0.2-0.4l0.1-0.4v-0.4l-0.2-0.2l-0.2-0.1l-0.3,0l-0.3,0l-0.3-0.2    l-0.3-0.2l-0.3-0.3l-0.3-0.3l-0.3-0.3l-0.1-0.1l-0.2-0.2l-0.3-0.3l-0.3-0.3l-0.2-0.1l-0.3,0.2l-0.2,0.3l-0.2,0.3l-0.2,0.1    l-0.2,0.2l-0.4,0l-0.2,0l-0.4-0.2h0l-0.2-0.1l-0.3-0.3l-0.2-0.4v-0.4c1.9,0.1,4,0.2,6.2,0.3l0.2,0.6l0.1,0.3l0.1,0.4l0.2,0.7    l0.2,0.7l0.2,0.6l0.3,0.1l0.2-0.4l0.1-0.2l0.2-0.7l0.1-0.7l0.1-0.5l0-0.2l0.2-0.6l0,0c0.6,0,1.3,0,2,0l0.2,0.2l0.3,0.4l0.1,0.2    l0.2,0.6l0.2,1l0.2,1l0.2,1h0.3l0.3,0.6l0.2,0.4l0.2,0.4l0.3,0.3l0.1,0.1l0.1,0.2l0-0.2l0-0.2l-0.2-0.8l-0.1-0.6l-0.1-0.6l0-0.7    l0.3,0.2l0.4,0.2l0.3,0.1h0.4v-0.8l0-0.8v-0.1c2.9-1.6,9.5-5.1,9.5-5.1c1.2,3.3,2,6.8,2,10.5C617.8,164.2,611.8,173.8,602.9,179     M596.4,153.1l0.1-0.1l0.2-0.6l0.1-0.3l0.1-0.2l0.2-0.4l0.1-0.2c0,0.5,0.2,1.4,0.2,1.9C597.1,153.1,596.8,153.1,596.4,153.1     M574.3,149.1l-0.4-0.3l-0.2-0.2l-0.4-0.3l-0.2-0.2l-0.2-0.1l-0.2-0.1l-0.3,0l-0.2,0l-0.3,0l-0.2,0.2l-0.2,0.2l-0.2,0.2l-0.3,0    l-0.1-0.3l-0.1-0.2l-0.4,0.2l-0.4,0.3h-0.4l-0.3-0.3l-0.3-0.5l0-0.5l0-0.4l0-0.1l0-0.1l0.2-0.3l-0.1-0.2v-0.2l-0.1-0.3l-0.4,0    l-0.2-0.2V145l0.1-0.5l0-0.5l-0.1-0.5l-0.2-0.2l-0.2,0l-0.2,0.2l-0.2,0.2l-0.3,0.2l-0.3,0.1l-0.3,0.1l-0.2,0.2l0-0.3v-0.4v-0.3    l0-0.2l0.1-0.4l0-0.4l0.1-0.4l0.1-0.2l0.2-0.2l0.2-0.1l0,0l0.3-0.1h0.3l0.3,0l0.3,0l0.3-0.1l0.1,0c0.1,0,0.2,0,0.2,0.1l0,0.2l0,0    l0.1,0.2l0.2,0.3l0.2,0.3l0.1,0.2h0.2l0.2-0.2l0.2-0.3v-0.3l0.1-0.1c3.2,1,6.8,1.9,11.4,2.7l-0.3,0.9l-0.2,0.4l-0.2,0.5l-0.2,0.5    v0.1v0.4l0.2,0.4l0.2,0.3l0.2,0.3l0.2,0.4l0.1,0.4l0,0.4l0,0.3l0.1,0.3l0.3,0.4l0.3,0.4l0.3,0.3l0.3,0.2l0.4,0.2l0.4,0.1l0.4,0.2    l0.4,0.1l0.3,0l0.2,0l0.2-0.1l0.2-0.2l0.2-0.2l0.2-0.2l0.2-0.2l0.2-0.2l0.2-0.1l0.3,0.1l0.2,0.2l0.1,0.3l0,0.3v0.3v0.3l0,0v0.3    l0,0.1c-4.6-0.5-8.4-1.2-11.7-2l-0.1-0.1l-0.3-0.2l-0.2-0.2l-0.2-0.2l-0.3-0.2l-0.3-0.4L574.3,149.1z M564.6,146.9    c-1.8-0.7-3.6-1.3-5.3-1.8c0.6-2.2,1.5-4.4,2.6-6.4c0.2,0.1,0.4,0.2,0.7,0.2v0h0.1c0,0,0.1,0,0.2,0l0,0.5l-0.1,0.6l-0.1,0.5    l0,0.6v0.2v0l0,0.2l0.1,0.4l0.2,0.5l0.1,0.6l0.2,0.5l0.3,0.4l0.1-0.4l0-0.4v0.3v0.3l0.2,0.4l0.3,0.4l0.2,0.3l0.3,0.4l0.3,0.3    l0.3,0.3l0.3,0.3l0.3,0.3l0.3,0.2l0.1,0.1l0.2,0.2l0.3,0l0.3,0.2l0.3,0.2l0.3,0.2l0.3,0.2l0.4,0.3l0.1,0.1    C567.1,147.8,565.8,147.3,564.6,146.9 M607.2,140.1l0-0.4l-0.1-0.4l-0.2-0.3l-0.2-0.3l-0.2-0.2l-0.2-0.2l-0.2-0.3l-0.1-0.4v-0.5    l0.1-0.2h0.2l0.3,0.2l0.2,0.2l0.2,0.3l0.3,0.2l0.2,0.2h0.3l-0.1-0.7l-0.3-0.5l-0.3-0.4l-0.3-0.6l0-0.2l0-0.4l0.2-0.3l0-0.3l0-0.3    l0-0.3l0.2-0.2l0.2-0.4l-0.1-0.3l-0.2-0.4l-0.2-0.4l-0.2-0.4l-0.2-0.4l-0.3-0.5l-0.3-0.3l0.4-0.2l-0.9-0.2l-0.3-0.3l-0.2,0    l-0.2,0l-0.1-0.2l0-0.3l0.2-0.3l0.2-0.2l0.2-0.1c4.6,3.4,8.3,8.1,10.3,13.6C615.8,142.6,610.8,141.2,607.2,140.1 M579.2,162.4    l0.1-0.3l0.3-0.2h0.4l0.4-0.2l0.2-0.3l0.2-0.4l0-0.5v-0.4l0-0.4l0-0.4l0.2-0.5l0.2-0.4l0.2-0.5l0.2-0.4l0-0.1l0.1-0.2l0.2-0.3    l0.1-0.3l0.2-0.3v-0.1c2,0.3,4.2,0.6,6.5,0.8v0.2v0.2l0,0.6l-0.1,0.7l-0.2,0.5l-0.1,0.5l-0.1,0.5v0.6l0.2,0.5l0.2,0.4l0.2,0.4    l0.2,0.5l0.1,0.9v0.3C585.1,163.5,581.9,163,579.2,162.4 M564.6,158.1c-2.2-0.8-4.2-1.5-6.3-2.1c-0.1-0.9-0.2-1.9-0.2-2.8    c0-1.3,0.1-2.6,0.3-3.8c1.9,0.6,3.8,1.2,5.8,2c0.8,0.3,1.6,0.6,2.5,0.9l-0.2,0.2l-0.3,0.3l-0.2,0.3l-0.1,0.4v0.4l0.1,0.5l0.2,0.4    l0.2,0.3l0.2,0.4l0.1,0.3l0.2,0.3l0.1-0.2l0.1-0.2l0,0.3l0,0.3l0,0.3l0,0.2l0.2,0.5l0.1,0.2l0.1,0.2l0.2,0.5l0.3,0.4l0.2,0.5    l0.3,0.4l0.1,0.1C567,159.1,565.8,158.6,564.6,158.1 M589.8,140.9l-0.1-0.5l-0.1-0.6l-0.2,0h-0.3l-0.2-0.2l0-0.2v-0.3l-0.1-0.4    l-0.2-0.3l-0.1-0.2l-0.2-0.3l-0.2-0.2l-0.4-0.2l-0.2,0l-0.3,0.2l-0.4,0.4l-0.3,0.3l-0.4,0.4l-0.4,0.3l-0.4-0.1l-0.2-0.1l-0.4,0    l-0.4,0.1l-0.4,0.2l-0.5,0.6l-0.2,0.3c-4.2-0.6-7.6-1.4-10.5-2.2v-0.2l0.2-0.2l0.3,0h0.3l0.2-0.2l0.2-0.4l0.3-0.3l0.3-0.3    l0.3-0.4v-0.2l0.2-0.3l0,0.4l0.2,0.3l0.4,0.1l0.2,0l0.4-0.2l0.4-0.2l0.3-0.3l0-0.3l-0.1-0.4l-0.1-0.2h0.2l0.2,0l0.2,0l0.2,0h0.4    l0.4-0.2l0.2-0.1l0-0.4l-0.2-1.1l0-0.4l0-0.1c1.2,0.2,2.4,0.5,3.8,0.7l-0.1,0.2l-0.2,0.2l-0.2,0.2l-0.2,0.2l-0.2,0.2l-0.2,0.3    l-0.1,0.5l0,0.6l0,0.6v0.6l0.1,0.2l0.2,0.4l0,0.3l0.3,0l0.3,0h0.3l0.3-0.1l0-0.2l0.4-0.4l0.3-0.4l0.2-0.5l0.2-0.5l0.3-0.1    l0.3-0.3l0.3-0.3l0.3-0.2l0.4,0.4l0.2,0.3l0.2,0.3l0.1,0.5l0.3,0.2l0.3,0l0.2,0.1l0.2,0.4l0.2,0.2l0.3,0.2l0.3,0.1l0.1-0.3    l0.2-0.2l0.2-0.2l0.2,0.2l0.3,0.4l0.2,0.3l0.1,0.4l0.2,0.3l0.2,0.1l0.3-0.1l0.3,0l0.3,0.8v0.7l0.2,0.3l0.2,0.2l0.3,0l0-0.3h0.4    l0.3,0l0.4,0.1l0.4,0.1l0.4,0h0.4l0.3-0.1l0.3-0.2l0.1,0.5l0.1,0.6l0,0.3C592.1,141.1,590.9,141,589.8,140.9 M592,123.9l-0.3,0.2    l-0.2,0.1l-0.3,0.2l-0.3,0.1l-0.3,0.1l-0.3,0.1l-0.3,0.1l-0.3,0.2l-0.3,0.2l-0.3,0.3l-0.2,0.3l-0.3,0l-0.3,0.5l-0.3-0.4l-0.3-0.5    l-0.3-0.5l-0.4-0.2l-0.3-0.1l-0.2-0.2l-0.2-0.2l-0.2-0.3l-0.3,0.2l-0.2,0.1l-0.2,0.2l-0.2,0.2l-0.2,0.2l-0.2,0.2l-0.2,0.3    l-0.1,0.3l-0.1,0.4l-0.1,0.4l-0.2,0.4l-0.2,0.3l-0.2,0.3l-0.2,0.2l-0.2,0.2l-0.3,0.1l-0.2,0.3l-0.2,0.3l0,0.1    c-0.9-0.1-1.8-0.3-2.7-0.5l0-0.2l-0.2-0.4l-0.2-0.3l-0.2-0.3l-0.3-0.2l-0.2-0.3l-0.2-0.2l-0.3-0.2l-0.3-0.2l-0.3-0.2l-0.4,0    l-0.3,0.2l-0.3,0.4l-0.3,0.4l-0.2,0.3l-0.2,0.4H576l-0.2-0.3l-0.2-0.2l-0.1,0.2l-0.2,0h-0.3l-0.1-0.4l-0.1-0.2c4-2,8.5-3,13-3    c1.4,0,2.8,0.1,4.2,0.3L592,123.9z M585.8,129c-0.3,0-0.6-0.1-1-0.1v-0.1l0.1-0.4l0.1-0.4l0.2-0.2l0.3,0.2l0.2,0.4l0.2,0.5    L585.8,129L585.8,129z M588,122.1c-5.5,0-11,1.5-15.7,4.3l-1.2,0.7l1.4,0.4c6.8,2,14.2,3,23.2,3.5l0.7,0c0,0-0.2-1.4-0.2-2.1    c1.2,0.4,5.5,1.6,7.4,2.2c-1.7,0.9-5.6,3-6.8,3.6c0-0.6-0.2-1.6-0.2-1.6l-0.5,0c-13.4-0.6-21.2-2.7-26.6-4.5l-0.3-0.1l-0.2,0.2    c-2.3,1.8-4.3,3.9-6,6.2l-0.5,0.6l1.8,0.6c7.9,2.9,17.7,6.5,40.7,6.4h0.7c0,0-0.1-1.2-0.2-1.8c1.2,0.4,5.5,1.6,7.4,2.2    c-1.7,0.9-5.6,3-6.8,3.6c-0.1-0.6-0.2-1.9-0.2-1.9h-0.6c-23,0.1-32.8-3.5-40.6-6.4l-3.2-1.2l-0.2,0.4c-1.4,2.4-2.4,5-3.2,7.6    l-0.2,0.6l0.6,0.2c1.9,0.6,3.8,1.2,5.8,2c7,2.6,15.7,5.7,34,6.3l0.7,0c0,0-0.1-1.2-0.2-1.7c1.2,0.4,5.5,1.6,7.4,2.2    c-1.7,0.9-5.6,3-6.8,3.6c-0.1-0.7-0.2-2-0.2-2h-0.5c-18.3-0.6-26.9-3.7-33.9-6.3c-2.2-0.8-4.3-1.6-6.5-2.2l-0.7-0.2l-0.1,0.7    c-0.2,1.6-0.4,3.1-0.4,4.7c0,1.1,0.1,2.2,0.2,3.4l0,0.4l0.4,0.1c2.2,0.6,4.4,1.4,6.6,2.2c6.1,2.2,13.6,5,27.8,6l0.7,0    c0,0-0.1-1.4-0.2-2c1.2,0.4,5.5,1.6,7.4,2.2c-1.7,0.9-5.6,3-6.8,3.6c-0.1-0.6-0.2-1.7-0.2-1.7l-0.5,0c-14.2-1-21.4-3.6-27.8-6    c-2.1-0.8-4.1-1.5-6.1-2.1l-1-0.3l0.2,1c1.5,6.8,5.4,12.9,10.8,17.3c5.5,4.4,12.4,6.9,19.5,6.9c17.1,0,31-13.9,31-31    C619,136.1,605.1,122.1,588,122.1z M610.4,154l0.3,0.3l0.3,0.3l0.4,0l0.4-0.2l0.1,0.5v0.3l0,0.2l0.2,0.1l0.4-0.4l0.1-0.4l0.2-0.6    v-0.7l0-0.6l-0.1-0.7l0,0l-0.1-0.3l-0.2-0.5l-0.1,0.2l-0.1-0.5l0-0.5l-0.1-0.4h-0.4l-0.2,0.2l-0.1,0.3l0,0.4l0,0.4l-0.3,0.1v0.2    l-0.3,0.3l0,0l-0.3,0.3l-0.2,0.4l-0.2,0.4l-0.2,0.3l0.4,0.3L610.4,154z"></path>		</g>		<g>			<path fill="#01ACCD" d="M54.8,153.5l-5.9-0.9c-5.2-0.6-5.2-1.9-5.2-2.4c0-2,3.2-2.8,6.2-2.8c6.3,0,7.8,2.2,8.4,3.9l0.1,0.3    l5.2-1.7l-0.1-0.4c-0.6-1.7-2.5-6.9-13.5-6.9c-7.7,0-11.9,2.8-11.9,7.8c0,4,3.3,6.6,9.2,7.4l6,0.8c2.3,0.3,5.1,1,5.1,2.8    c0,1.8-2.9,3.1-6.9,3.1c-6.1,0-8-2.3-9-4.2l-0.1-0.3l-5.3,1.7l0.1,0.3c0.5,1.7,3.1,7.4,14.2,7.4c8,0,12.6-3.1,12.6-8.4    C63.9,156.9,60.9,154.4,54.8,153.5z"></path>			<polygon fill="#01ACCD" points="72.9,158.1 87.9,158.1 87.9,153.2 72.9,153.2 72.9,148.1 90.4,148.1 90.4,143.3 67.4,143.3     67.4,168.8 90.8,168.8 90.8,163.9 72.9,163.9    "></polygon>			<polygon fill="#01ACCD" points="99.5,158.1 114.5,158.1 114.5,153.2 99.5,153.2 99.5,148.1 117,148.1 117,143.3 94,143.3     94,168.8 117.4,168.8 117.4,163.9 99.5,163.9    "></polygon>			<polygon fill="#01ACCD" points="126.1,143.3 120.6,143.3 120.6,168.8 144.1,168.8 144.1,163.8 126.1,163.8    "></polygon>			<polygon fill="#01ACCD" points="152.7,158.1 167.7,158.1 167.7,153.2 152.7,153.2 152.7,148.1 170.1,148.1 170.1,143.3     147.2,143.3 147.2,168.8 170.5,168.8 170.5,163.9 152.7,163.9    "></polygon>			<polygon fill="#01ACCD" points="194.7,143.3 186.3,153.6 177.9,143.3 171,143.3 183.5,158.7 183.5,168.8 189.1,168.8     189.1,158.7 201.6,143.3    "></polygon>		</g>		<path fill="#01ACCD" d="M214.4,143.6h3v24.8h-3V143.6z"></path>		<path fill="#01ACCD" d="M223.9,143.6h4.3l18.5,20.4v-20.4h3v24.8h-3l-19.9-22.2v22.2h-2.9V143.6z"></path>		<path fill="#01ACCD" d="M265.6,146.3h-12v-2.7h27v2.7h-12v22.2h-3V146.3z"></path>		<path fill="#01ACCD" d="M284.6,143.6h22.1v2.7h-19.1v7.9h16v2.7h-16v8.9h19.6v2.7h-22.6V143.6z"></path>		<path fill="#01ACCD" d="M311.2,143.6h14.4c4,0,9.8,0.8,9.8,6.9c0,5.2-4.8,6.7-7.8,6.8l8.2,11.1H332l-8-11h-9.8v11h-3V143.6z    M314.2,154.8h10.6c4.3,0,7.6-0.6,7.6-4.3c0-3.6-3.2-4.2-7.6-4.2h-10.6V154.8z"></path>		<path fill="#01ACCD" d="M341.6,143.6h4.3l18.5,20.4v-20.4h3v24.8h-3l-19.9-22.2v22.2h-2.9V143.6z"></path>		<path fill="#01ACCD" d="M384,143.6h3.7l12.8,24.8H397l-3.2-6.4h-16l-3.2,6.4h-3.4L384,143.6z M392.5,159.3l-6.7-13.4l-6.7,13.4   H392.5z"></path>		<path fill="#01ACCD" d="M409.4,146.3h-12v-2.7h27v2.7h-12v22.2h-3V146.3z"></path>		<path fill="#01ACCD" d="M428.4,143.6h3v24.8h-3V143.6z"></path>		<path fill="#01ACCD" d="M450.8,143c8.4,0,14.6,4.9,14.6,13.2c0,8.8-7.4,12.9-14.6,12.9c-7.2,0-14.6-4.1-14.6-12.9   C436.2,147.9,442.4,143,450.8,143z M450.8,166.4c6,0,11.5-3.2,11.5-10.8c0-5.5-4.3-10.1-11.5-10.1s-11.5,4.6-11.5,10.1   C439.3,163.2,444.7,166.4,450.8,166.4z"></path>		<path fill="#01ACCD" d="M470.2,143.6h4.3l18.5,20.4v-20.4h3v24.8h-3L473,146.3v22.2h-2.9V143.6z"></path>		<path fill="#01ACCD" d="M512.6,143.6h3.7l12.8,24.8h-3.4l-3.2-6.4h-16l-3.2,6.4h-3.4L512.6,143.6z M521,159.3l-6.7-13.4l-6.7,13.4   H521z"></path>		<path fill="#01ACCD" d="M532.8,143.6h3v22.2h19.6v2.7h-22.6V143.6z"></path>		<g>			<path fill="#01ACCD" d="M0,153.3h9c1.8,0,6,0,6,4c0,2.1-1.4,2.8-2.4,3.3c1,0.4,2.9,1.3,2.9,3.8c0,4.2-4.4,4.4-7.6,4.4H0L0,153.3    L0,153.3L0,153.3z M1.9,159.9h6.6c2.2,0,4.6-0.4,4.6-2.6c0-2.5-2.5-2.5-5.3-2.5h-6V159.9z M1.9,167.1h7.3c2.3,0,4.5-0.4,4.5-2.8    c0-2.2-1.7-2.9-4.2-2.9H1.9L1.9,167.1L1.9,167.1z"></path>			<path fill="#01ACCD" d="M18,170.8c0.6,0.2,1.4,0.4,2,0.4c1.3,0,2.2-0.6,3.2-2.8l-5.8-10.8h1.9l4.8,9l4.6-9h1.9l-6.5,12.6    c-0.7,1.4-1.9,2.5-3.9,2.5c-0.7,0-1.4-0.1-2.1-0.4V170.8z"></path>		</g>	</g></g><path fill="#010101" d="M628.5,160.5v8h-1v-8h-2.6v-0.8h6.2v0.8H628.5z"></path><path fill="#010101" d="M639.3,168.5v-8h0l-2.4,8h-0.8l-2.5-8h0v8h-0.9v-8.8h1.5l2.2,7.1h0l2.2-7.1h1.5v8.8H639.3z"></path></svg>